HIERARCHY
ROOT Hips
{
	OFFSET	0.00	0.00	0.00
	CHANNELS 6 Xposition Yposition Zposition Zrotation Xrotation Yrotation
	JOINT Spine
	{
		OFFSET	 0.000000	 0.052128	 0.009727
		CHANNELS 3 Zrotation Xrotation Yrotation
		JOINT Chest
		{
			OFFSET	 0.000000	 0.110886	 0.014510
			CHANNELS 3 Zrotation Xrotation Yrotation
			JOINT UpperChest
			{
				OFFSET	 0.000000	 0.124285	-0.013313
				CHANNELS 3 Zrotation Xrotation Yrotation
				JOINT Neck
				{
					OFFSET	-0.000000	 0.114615	-0.033396
					CHANNELS 3 Zrotation Xrotation Yrotation
					JOINT Head
					{
						OFFSET	 0.000000	 0.073770	 0.009335
						CHANNELS 3 Zrotation Xrotation Yrotation
						JOINT LeftEye
						{
							OFFSET	 0.020036	 0.059252	 0.028383
							CHANNELS 3 Zrotation Xrotation Yrotation
							End Site
							{
								OFFSET	 0.020036	 0.059252	 0.028383
							}
						}
						JOINT RightEye
						{
							OFFSET	-0.020036	 0.059252	 0.028383
							CHANNELS 3 Zrotation Xrotation Yrotation
							End Site
							{
								OFFSET	-0.020036	 0.059252	 0.028383
							}
						}
					}
				}
				JOINT LeftShoulder
				{
					OFFSET	 0.022386	 0.087264	-0.027443
					CHANNELS 3 Zrotation Xrotation Yrotation
					JOINT LeftUpperArm
					{
						OFFSET	 0.086295	-0.014869	 0.005364
						CHANNELS 3 Zrotation Xrotation Yrotation
						JOINT LeftLowerArm
						{
							OFFSET	 0.210165	-0.009786	 0.001763
							CHANNELS 3 Zrotation Xrotation Yrotation
							JOINT LeftHand
							{
								OFFSET	 0.204753	-0.000446	 0.016902
								CHANNELS 3 Zrotation Xrotation Yrotation
								JOINT LeftIndexProximal
								{
									OFFSET	 0.063906	 0.005562	 0.021442
									CHANNELS 3 Zrotation Xrotation Yrotation
									JOINT LeftIndexIntermediate
									{
										OFFSET	 0.032821	-0.000134	 0.005149
										CHANNELS 3 Zrotation Xrotation Yrotation
										JOINT LeftIndexDistal
										{
											OFFSET	 0.020314	-0.000674	 0.002301
											CHANNELS 3 Zrotation Xrotation Yrotation
											End Site
											{
												OFFSET	 0.020314	-0.000674	 0.002301
											}
										}
									}
								}
								JOINT LeftLittleProximal
								{
									OFFSET	 0.063261	 0.003125	-0.026793
									CHANNELS 3 Zrotation Xrotation Yrotation
									JOINT LeftLittleIntermediate
									{
										OFFSET	 0.031398	-0.000273	 0.000022
										CHANNELS 3 Zrotation Xrotation Yrotation
										JOINT LeftLittleDistal
										{
											OFFSET	 0.018059	 0.000679	-0.000943
											CHANNELS 3 Zrotation Xrotation Yrotation
											End Site
											{
												OFFSET	 0.018059	 0.000679	-0.000943
											}
										}
									}
								}
								JOINT LeftMiddleProximal
								{
									OFFSET	 0.066112	 0.008373	 0.004780
									CHANNELS 3 Zrotation Xrotation Yrotation
									JOINT LeftMiddleIntermediate
									{
										OFFSET	 0.036901	-0.001349	 0.002438
										CHANNELS 3 Zrotation Xrotation Yrotation
										JOINT LeftMiddleDistal
										{
											OFFSET	 0.022683	-0.002405	 0.000937
											CHANNELS 3 Zrotation Xrotation Yrotation
											End Site
											{
												OFFSET	 0.022683	-0.002405	 0.000937
											}
										}
									}
								}
								JOINT LeftRingProximal
								{
									OFFSET	 0.066681	 0.008306	-0.010961
									CHANNELS 3 Zrotation Xrotation Yrotation
									JOINT LeftRingIntermediate
									{
										OFFSET	 0.034323	-0.000538	 0.000172
										CHANNELS 3 Zrotation Xrotation Yrotation
										JOINT LeftRingDistal
										{
											OFFSET	 0.019797	 0.000700	 0.000249
											CHANNELS 3 Zrotation Xrotation Yrotation
											End Site
											{
												OFFSET	 0.019797	 0.000700	 0.000249
											}
										}
									}
								}
								JOINT LeftThumbProximal
								{
									OFFSET	 0.002032	-0.006912	 0.017734
									CHANNELS 3 Zrotation Xrotation Yrotation
									JOINT LeftThumbIntermediate
									{
										OFFSET	 0.032287	-0.002701	 0.033401
										CHANNELS 3 Zrotation Xrotation Yrotation
										JOINT LeftThumbDistal
										{
											OFFSET	 0.021324	-0.001512	 0.019035
											CHANNELS 3 Zrotation Xrotation Yrotation
											End Site
											{
												OFFSET	 0.021324	-0.001512	 0.019035
											}
										}
									}
								}
							}
						}
					}
				}
				JOINT RightShoulder
				{
					OFFSET	-0.022386	 0.087267	-0.027443
					CHANNELS 3 Zrotation Xrotation Yrotation
					JOINT RightUpperArm
					{
						OFFSET	-0.086294	-0.014870	 0.005364
						CHANNELS 3 Zrotation Xrotation Yrotation
						JOINT RightLowerArm
						{
							OFFSET	-0.210167	-0.009788	 0.001763
							CHANNELS 3 Zrotation Xrotation Yrotation
							JOINT RightHand
							{
								OFFSET	-0.204752	-0.000445	 0.016902
								CHANNELS 3 Zrotation Xrotation Yrotation
								JOINT RightIndexProximal
								{
									OFFSET	-0.063906	 0.005562	 0.021442
									CHANNELS 3 Zrotation Xrotation Yrotation
									JOINT RightIndexIntermediate
									{
										OFFSET	-0.032821	-0.000134	 0.005149
										CHANNELS 3 Zrotation Xrotation Yrotation
										JOINT RightIndexDistal
										{
											OFFSET	-0.020314	-0.000674	 0.002302
											CHANNELS 3 Zrotation Xrotation Yrotation
											End Site
											{
												OFFSET	-0.020314	-0.000674	 0.002302
											}
										}
									}
								}
								JOINT RightLittleProximal
								{
									OFFSET	-0.063262	 0.003125	-0.026793
									CHANNELS 3 Zrotation Xrotation Yrotation
									JOINT RightLittleIntermediate
									{
										OFFSET	-0.031398	-0.000273	 0.000023
										CHANNELS 3 Zrotation Xrotation Yrotation
										JOINT RightLittleDistal
										{
											OFFSET	-0.018059	 0.000679	-0.000943
											CHANNELS 3 Zrotation Xrotation Yrotation
											End Site
											{
												OFFSET	-0.018059	 0.000679	-0.000943
											}
										}
									}
								}
								JOINT RightMiddleProximal
								{
									OFFSET	-0.066112	 0.008373	 0.004780
									CHANNELS 3 Zrotation Xrotation Yrotation
									JOINT RightMiddleIntermediate
									{
										OFFSET	-0.036901	-0.001349	 0.002438
										CHANNELS 3 Zrotation Xrotation Yrotation
										JOINT RightMiddleDistal
										{
											OFFSET	-0.022683	-0.002405	 0.000937
											CHANNELS 3 Zrotation Xrotation Yrotation
											End Site
											{
												OFFSET	-0.022683	-0.002405	 0.000937
											}
										}
									}
								}
								JOINT RightRingProximal
								{
									OFFSET	-0.066681	 0.008306	-0.010961
									CHANNELS 3 Zrotation Xrotation Yrotation
									JOINT RightRingIntermediate
									{
										OFFSET	-0.034323	-0.000538	 0.000173
										CHANNELS 3 Zrotation Xrotation Yrotation
										JOINT RightRingDistal
										{
											OFFSET	-0.019796	 0.000700	 0.000249
											CHANNELS 3 Zrotation Xrotation Yrotation
											End Site
											{
												OFFSET	-0.019796	 0.000700	 0.000249
											}
										}
									}
								}
								JOINT RightThumbProximal
								{
									OFFSET	-0.002032	-0.006912	 0.017734
									CHANNELS 3 Zrotation Xrotation Yrotation
									JOINT RightThumbIntermediate
									{
										OFFSET	-0.032277	-0.002678	 0.033413
										CHANNELS 3 Zrotation Xrotation Yrotation
										JOINT RightThumbDistal
										{
											OFFSET	-0.021319	-0.001499	 0.019040
											CHANNELS 3 Zrotation Xrotation Yrotation
											End Site
											{
												OFFSET	-0.021319	-0.001499	 0.019040
											}
										}
									}
								}
							}
						}
					}
				}
			}
		}
	}
	JOINT LeftUpperLeg
	{
		OFFSET	 0.077122	-0.039702	-0.004909
		CHANNELS 3 Zrotation Xrotation Yrotation
		JOINT LeftLowerLeg
		{
			OFFSET	-0.019634	-0.342479	-0.006634
			CHANNELS 3 Zrotation Xrotation Yrotation
			JOINT LeftFoot
			{
				OFFSET	-0.010011	-0.401580	-0.020943
				CHANNELS 3 Zrotation Xrotation Yrotation
				JOINT LeftToes
				{
					OFFSET	 0.001443	-0.064447	 0.110538
					CHANNELS 3 Zrotation Xrotation Yrotation
					End Site
					{
						OFFSET	 0.001443	-0.064447	 0.110538
					}
				}
			}
		}
	}
	JOINT RightUpperLeg
	{
		OFFSET	-0.077122	-0.039702	-0.004909
		CHANNELS 3 Zrotation Xrotation Yrotation
		JOINT RightLowerLeg
		{
			OFFSET	 0.019634	-0.342480	-0.006634
			CHANNELS 3 Zrotation Xrotation Yrotation
			JOINT RightFoot
			{
				OFFSET	 0.010012	-0.401580	-0.020943
				CHANNELS 3 Zrotation Xrotation Yrotation
				JOINT RightToes
				{
					OFFSET	-0.001442	-0.064447	 0.110538
					CHANNELS 3 Zrotation Xrotation Yrotation
					End Site
					{
						OFFSET	-0.001442	-0.064447	 0.110538
					}
				}
			}
		}
	}
}
MOTION
Frames:    6
Frame Time: 0.03333334
 0.265798	 1.049645	-0.472075	 7.433079	-8.163624	 13.900980	-4.603918	 4.404509	-6.577999	-4.408435	 22.764790	 0.509380	 0.000000	 0.000000	 0.000000	 3.379002	-11.631100	 0.961962	-0.717753	-4.376698	-0.392838	 0.000000	 0.000000	 0.000000	 0.000000	 0.000000	 0.000000	 14.428510	-19.533210	 21.708870	-76.148970	 25.595230	-1.737048	-17.940430	-5.521070	-103.396900	 12.002530	 20.351580	-14.359790	 0.000000	 0.000000	 0.000000	 0.000000	 0.000000	 0.000000	 0.000000	 0.000000	 0.000000	 0.000000	 0.000000	 0.000000	 0.000000	 0.000000	 0.000000	 0.000000	 0.000000	 0.000000	 0.000000	 0.000000	 0.000000	 0.000000	 0.000000	 0.000000	 0.000000	 0.000000	 0.000000	 0.000000	 0.000000	 0.000000	 0.000000	 0.000000	 0.000000	 0.000000	 0.000000	 0.000000	 0.000000	 0.000000	 0.000000	 0.000000	 0.000000	 0.000000	 0.000000	 0.000000	 0.000000	-12.046270	-19.520970	-21.866590	 75.585340	 25.386880	 1.338807	 19.665030	-21.336930	 110.961000	-4.942649	 14.862450	 4.921546	 0.000000	 0.000000	 0.000000	 0.000000	 0.000000	 0.000000	 0.000000	 0.000000	 0.000000	 0.000000	 0.000000	 0.000000	 0.000000	 0.000000	 0.000000	 0.000000	 0.000000	 0.000000	 0.000000	 0.000000	 0.000000	 0.000000	 0.000000	 0.000000	 0.000000	 0.000000	 0.000000	 0.000000	 0.000000	 0.000000	 0.000000	 0.000000	 0.000000	 0.000000	 0.000000	 0.000000	 0.000000	 0.000000	 0.000000	 0.000000	 0.000000	 0.000000	 0.000000	 0.000000	 0.000000	-6.721941	-0.637317	-0.282557	 56.157790	-8.074156	-95.358690	-7.122077	-5.121161	 151.030300	 0.000000	 0.000000	 0.000000	-7.385917	-8.715899	-0.640082	-3.165902	 26.944890	 11.637670	 38.776790	-6.383177	 71.813380	 0.000000	 0.000000	 0.000000
 0.265798	 1.049645	-0.472075	 7.433079	-8.163624	 13.900980	-4.603918	 4.404509	-6.577999	-4.408435	 22.764790	 0.509380	 0.000000	 0.000000	 0.000000	 3.379002	-11.631100	 0.961962	-0.717753	-4.376698	-0.392838	 0.000000	 0.000000	 0.000000	 0.000000	 0.000000	 0.000000	 14.428510	-19.533210	 21.708870	-76.148970	 25.595230	-1.737048	-17.940430	-5.521070	-103.396900	 12.002530	 20.351580	-14.359790	 0.000000	 0.000000	 0.000000	 0.000000	 0.000000	 0.000000	 0.000000	 0.000000	 0.000000	 0.000000	 0.000000	 0.000000	 0.000000	 0.000000	 0.000000	 0.000000	 0.000000	 0.000000	 0.000000	 0.000000	 0.000000	 0.000000	 0.000000	 0.000000	 0.000000	 0.000000	 0.000000	 0.000000	 0.000000	 0.000000	 0.000000	 0.000000	 0.000000	 0.000000	 0.000000	 0.000000	 0.000000	 0.000000	 0.000000	 0.000000	 0.000000	 0.000000	 0.000000	 0.000000	 0.000000	-12.046270	-19.520970	-21.866590	 75.585340	 25.386880	 1.338807	 19.665030	-21.336930	 110.961000	-4.942649	 14.862450	 4.921546	 0.000000	 0.000000	 0.000000	 0.000000	 0.000000	 0.000000	 0.000000	 0.000000	 0.000000	 0.000000	 0.000000	 0.000000	 0.000000	 0.000000	 0.000000	 0.000000	 0.000000	 0.000000	 0.000000	 0.000000	 0.000000	 0.000000	 0.000000	 0.000000	 0.000000	 0.000000	 0.000000	 0.000000	 0.000000	 0.000000	 0.000000	 0.000000	 0.000000	 0.000000	 0.000000	 0.000000	 0.000000	 0.000000	 0.000000	 0.000000	 0.000000	 0.000000	 0.000000	 0.000000	 0.000000	-6.721941	-0.637317	-0.282557	 56.157790	-8.074156	-95.358690	-7.122077	-5.121161	 151.030300	 0.000000	 0.000000	 0.000000	-7.385917	-8.715899	-0.640082	-3.165902	 26.944890	 11.637670	 38.776790	-6.383177	 71.813380	 0.000000	 0.000000	 0.000000
 0.271698	 1.051317	-0.432491	 5.195865	-7.424007	 10.925840	-3.804734	 3.717598	-6.193334	-3.531215	 22.224070	 0.393303	 0.000000	 0.000000	 0.000000	 2.569240	-11.924710	 0.718799	-0.052014	-4.884771	 0.733073	 0.000000	 0.000000	 0.000000	 0.000000	 0.000000	 0.000000	 13.922420	-19.365590	 20.570460	-79.258730	 25.464760	-0.933035	-17.914210	 0.320174	-94.836270	 5.223629	 23.152400	-11.996200	 0.000000	 0.000000	 0.000000	 0.000000	 0.000000	 0.000000	 0.000000	 0.000000	 0.000000	 0.000000	 0.000000	 0.000000	 0.000000	 0.000000	 0.000000	 0.000000	 0.000000	 0.000000	 0.000000	 0.000000	 0.000000	 0.000000	 0.000000	 0.000000	 0.000000	 0.000000	 0.000000	 0.000000	 0.000000	 0.000000	 0.000000	 0.000000	 0.000000	 0.000000	 0.000000	 0.000000	 0.000000	 0.000000	 0.000000	 0.000000	 0.000000	 0.000000	 0.000000	 0.000000	 0.000000	-11.966070	-19.382780	-20.549020	 78.633290	 24.280080	-0.291866	 18.378230	-11.230730	 105.935300	-3.426037	 15.355150	 5.898453	 0.000000	 0.000000	 0.000000	 0.000000	 0.000000	 0.000000	 0.000000	 0.000000	 0.000000	 0.000000	 0.000000	 0.000000	 0.000000	 0.000000	 0.000000	 0.000000	 0.000000	 0.000000	 0.000000	 0.000000	 0.000000	 0.000000	 0.000000	 0.000000	 0.000000	 0.000000	 0.000000	 0.000000	 0.000000	 0.000000	 0.000000	 0.000000	 0.000000	 0.000000	 0.000000	 0.000000	 0.000000	 0.000000	 0.000000	 0.000000	 0.000000	 0.000000	 0.000000	 0.000000	 0.000000	-6.210022	-2.776549	-0.519802	 61.469380	-8.160707	-94.555300	-7.416133	-3.132437	 125.377200	 0.000000	 0.000000	 0.000000	-5.754389	-11.512690	-0.700154	-5.273530	 27.903360	 15.732380	 31.196420	-9.116572	 57.943790	 0.000000	 0.000000	 0.000000
 0.271698	 1.051317	-0.432491	 5.195865	-7.424007	 10.925840	-3.804734	 3.717598	-6.193334	-3.531215	 22.224070	 0.393303	 0.000000	 0.000000	 0.000000	 2.569240	-11.924710	 0.718799	-0.052014	-4.884771	 0.733073	 0.000000	 0.000000	 0.000000	 0.000000	 0.000000	 0.000000	 13.922420	-19.365590	 20.570460	-79.258730	 25.464760	-0.933035	-17.914210	 0.320174	-94.836270	 5.223629	 23.152400	-11.996200	 0.000000	 0.000000	 0.000000	 0.000000	 0.000000	 0.000000	 0.000000	 0.000000	 0.000000	 0.000000	 0.000000	 0.000000	 0.000000	 0.000000	 0.000000	 0.000000	 0.000000	 0.000000	 0.000000	 0.000000	 0.000000	 0.000000	 0.000000	 0.000000	 0.000000	 0.000000	 0.000000	 0.000000	 0.000000	 0.000000	 0.000000	 0.000000	 0.000000	 0.000000	 0.000000	 0.000000	 0.000000	 0.000000	 0.000000	 0.000000	 0.000000	 0.000000	 0.000000	 0.000000	 0.000000	-11.966070	-19.382780	-20.549020	 78.633290	 24.280080	-0.291866	 18.378230	-11.230730	 105.935300	-3.426037	 15.355150	 5.898453	 0.000000	 0.000000	 0.000000	 0.000000	 0.000000	 0.000000	 0.000000	 0.000000	 0.000000	 0.000000	 0.000000	 0.000000	 0.000000	 0.000000	 0.000000	 0.000000	 0.000000	 0.000000	 0.000000	 0.000000	 0.000000	 0.000000	 0.000000	 0.000000	 0.000000	 0.000000	 0.000000	 0.000000	 0.000000	 0.000000	 0.000000	 0.000000	 0.000000	 0.000000	 0.000000	 0.000000	 0.000000	 0.000000	 0.000000	 0.000000	 0.000000	 0.000000	 0.000000	 0.000000	 0.000000	-6.210022	-2.776549	-0.519802	 61.469380	-8.160707	-94.555300	-7.416133	-3.132437	 125.377200	 0.000000	 0.000000	 0.000000	-5.754389	-11.512690	-0.700154	-5.273530	 27.903360	 15.732380	 31.196420	-9.116572	 57.943790	 0.000000	 0.000000	 0.000000
 0.271698	 1.051317	-0.432491	 5.195865	-7.424007	 10.925840	-3.804734	 3.717598	-6.193334	-3.531215	 22.224070	 0.393303	 0.000000	 0.000000	 0.000000	 2.569240	-11.924710	 0.718799	-0.052014	-4.884771	 0.733073	 0.000000	 0.000000	 0.000000	 0.000000	 0.000000	 0.000000	 13.922420	-19.365590	 20.570460	-79.258730	 25.464760	-0.933035	-17.914210	 0.320174	-94.836270	 5.223629	 23.152400	-11.996200	 0.000000	 0.000000	 0.000000	 0.000000	 0.000000	 0.000000	 0.000000	 0.000000	 0.000000	 0.000000	 0.000000	 0.000000	 0.000000	 0.000000	 0.000000	 0.000000	 0.000000	 0.000000	 0.000000	 0.000000	 0.000000	 0.000000	 0.000000	 0.000000	 0.000000	 0.000000	 0.000000	 0.000000	 0.000000	 0.000000	 0.000000	 0.000000	 0.000000	 0.000000	 0.000000	 0.000000	 0.000000	 0.000000	 0.000000	 0.000000	 0.000000	 0.000000	 0.000000	 0.000000	 0.000000	-11.966070	-19.382780	-20.549020	 78.633290	 24.280080	-0.291866	 18.378230	-11.230730	 105.935300	-3.426037	 15.355150	 5.898453	 0.000000	 0.000000	 0.000000	 0.000000	 0.000000	 0.000000	 0.000000	 0.000000	 0.000000	 0.000000	 0.000000	 0.000000	 0.000000	 0.000000	 0.000000	 0.000000	 0.000000	 0.000000	 0.000000	 0.000000	 0.000000	 0.000000	 0.000000	 0.000000	 0.000000	 0.000000	 0.000000	 0.000000	 0.000000	 0.000000	 0.000000	 0.000000	 0.000000	 0.000000	 0.000000	 0.000000	 0.000000	 0.000000	 0.000000	 0.000000	 0.000000	 0.000000	 0.000000	 0.000000	 0.000000	-6.210022	-2.776549	-0.519802	 61.469380	-8.160707	-94.555300	-7.416133	-3.132437	 125.377200	 0.000000	 0.000000	 0.000000	-5.754389	-11.512690	-0.700154	-5.273530	 27.903360	 15.732380	 31.196420	-9.116572	 57.943790	 0.000000	 0.000000	 0.000000
 0.275550	 1.050586	-0.416007	 4.060527	-7.450010	 9.110945	-3.575303	 3.530358	-5.875907	-3.291443	 22.078550	 0.361667	 0.000000	 0.000000	 0.000000	 2.223888	-12.145310	 0.622246	 0.568071	-5.311737	 1.470126	 0.000000	 0.000000	 0.000000	 0.000000	 0.000000	 0.000000	 14.153070	-19.311900	 20.080950	-80.304940	 25.171730	-0.644127	-17.878400	 2.871836	-91.606300	 0.708485	 23.711790	-10.032820	 0.000000	 0.000000	 0.000000	 0.000000	 0.000000	 0.000000	 0.000000	 0.000000	 0.000000	 0.000000	 0.000000	 0.000000	 0.000000	 0.000000	 0.000000	 0.000000	 0.000000	 0.000000	 0.000000	 0.000000	 0.000000	 0.000000	 0.000000	 0.000000	 0.000000	 0.000000	 0.000000	 0.000000	 0.000000	 0.000000	 0.000000	 0.000000	 0.000000	 0.000000	 0.000000	 0.000000	 0.000000	 0.000000	 0.000000	 0.000000	 0.000000	 0.000000	 0.000000	 0.000000	 0.000000	-11.410820	-19.403420	-19.690790	 80.438220	 24.346330	-0.470590	 17.891650	-5.284864	 103.354100	-1.208324	 15.771470	 5.834822	 0.000000	 0.000000	 0.000000	 0.000000	 0.000000	 0.000000	 0.000000	 0.000000	 0.000000	 0.000000	 0.000000	 0.000000	 0.000000	 0.000000	 0.000000	 0.000000	 0.000000	 0.000000	 0.000000	 0.000000	 0.000000	 0.000000	 0.000000	 0.000000	 0.000000	 0.000000	 0.000000	 0.000000	 0.000000	 0.000000	 0.000000	 0.000000	 0.000000	 0.000000	 0.000000	 0.000000	 0.000000	 0.000000	 0.000000	 0.000000	 0.000000	 0.000000	 0.000000	 0.000000	 0.000000	-5.881000	-5.234269	-0.763097	 59.465250	-3.899414	-92.696570	-6.937340	-1.428828	 102.877200	 0.000000	 0.000000	 0.000000	-5.014242	-13.731270	-0.756302	-5.659472	 29.469890	 15.849960	 24.606650	-9.941891	 46.335520	 0.000000	 0.000000	 0.000000
